<svg xmlns="http://www.w3.org/2000/svg" viewBox="0 0 1020.23 776.39"><defs><style>.cls-1{fill:#172b4d;}.cls-2{fill:#0065ff;}.cls-3{fill:#ff5630;}.cls-4{fill:#00b8d9;}.cls-5{fill:#6554c0;}.cls-6{fill:#36b37e;}.cls-10,.cls-11,.cls-12,.cls-13,.cls-14,.cls-15,.cls-16,.cls-17,.cls-18,.cls-7,.cls-8,.cls-9{fill:none;}.cls-13,.cls-7{stroke:#172b4d;stroke-width:3px;}.cls-7{stroke-miterlimit:10;}.cls-10,.cls-11,.cls-12,.cls-14,.cls-15,.cls-16,.cls-17,.cls-18,.cls-8,.cls-9{stroke:#ebecf0;stroke-width:4px;}.cls-10,.cls-11,.cls-12,.cls-13,.cls-14,.cls-15,.cls-16,.cls-17,.cls-18,.cls-8,.cls-9{stroke-linecap:round;stroke-linejoin:round;}.cls-8{stroke-dasharray:0 18.61;}.cls-9{stroke-dasharray:0 18.43;}.cls-10{stroke-dasharray:0 18.18;}.cls-11{stroke-dasharray:0 19.24;}.cls-12{stroke-dasharray:0 19.46;}.cls-14{stroke-dasharray:0 16.32;}.cls-15{stroke-dasharray:0 17.8;}.cls-16{stroke-dasharray:0 17.91;}.cls-17{stroke-dasharray:0 17.76;}.cls-18{stroke-dasharray:0 18.09;}</style></defs><title>vc</title><g id="Layer_2" data-name="Layer 2"><g id="Layer_1-2" data-name="Layer 1"><path class="cls-1" d="M109.78,776.06v-9.87l-3.88,9.87h-2.69l-3.89-9.74v9.74H96.17V761.17h4.33l4.09,10.06,3.89-10.06H113v14.89Z"/><path class="cls-1" d="M125.59,773h-5.75l-1.07,3h-3.49l5.61-14.89h3.84l5.55,14.89h-3.62Zm-4.66-3h3.61l-1.78-5.14Z"/><path class="cls-1" d="M139.77,765.67a2.25,2.25,0,0,0-2.48-1.87,1.83,1.83,0,0,0-2,1.59c0,.72.44,1.24,1.47,1.43l2,.38c2.83.52,4.3,2.35,4.3,4.47,0,2.33-2,4.7-5.5,4.7-4.11,0-5.88-2.66-6.09-4.76l3-.74a2.76,2.76,0,0,0,3.08,2.56c1.31,0,2.1-.63,2.1-1.55,0-.76-.61-1.3-1.59-1.49l-2-.38c-2.52-.48-4.05-2.16-4.05-4.37,0-2.81,2.48-4.78,5.33-4.78,3.72,0,5.13,2.22,5.44,4Z"/><path class="cls-1" d="M152.37,764.34v11.72h-3.32V764.34h-4.58v-3.17H157v3.17Z"/><path class="cls-1" d="M159.4,776.06V761.17h9.43v3.13h-6.11v2.84h5.55v2.91h-5.55v2.86h6.13v3.15Z"/><path class="cls-1" d="M176.56,770.52h-1.18v5.54h-3.31V761.17H178a4.55,4.55,0,0,1,4.83,4.66,4.27,4.27,0,0,1-2.94,4.2l3,6h-3.65Zm.78-2.86c1.36,0,2.1-.76,2.1-1.81s-.74-1.8-2.1-1.8h-2v3.61Z"/><circle class="cls-2" cx="139.1" cy="710.3" r="20.55" transform="translate(-10.74 2.19) rotate(-0.87)"/><path class="cls-1" d="M294.09,776.06v-5.92h-5.94v5.92h-3.31V761.17h3.31V767h5.94v-5.84h3.34v14.89Z"/><path class="cls-1" d="M308,760.86a7.76,7.76,0,1,1-7.75,7.77A7.53,7.53,0,0,1,308,760.86Zm0,12.24a4.51,4.51,0,1,0-4.31-4.49A4.2,4.2,0,0,0,308,773.1Z"/><path class="cls-1" d="M324.82,764.34v11.72H321.5V764.34h-4.58v-3.17h12.5v3.17Z"/><path class="cls-1" d="M331.85,776.06V761.17h9.6v3.15h-6.28v3.15h5.52v3h-5.5v5.56Z"/><path class="cls-1" d="M344.2,776.06V761.17h3.36v14.89Z"/><path class="cls-1" d="M358.94,768.65l4.83,7.41h-4l-2.94-4.83-2.92,4.83H350l4.81-7.45L350,761.17h4l2.94,4.83,2.94-4.83h3.88Z"/><circle class="cls-3" cx="323.7" cy="710.3" r="20.55" transform="translate(-10.72 4.98) rotate(-0.87)"/><path class="cls-1" d="M468.15,770.52H467v5.54h-3.32V761.17h5.9a4.55,4.55,0,0,1,4.83,4.66,4.26,4.26,0,0,1-2.94,4.2l3,6h-3.65Zm.78-2.86c1.36,0,2.1-.76,2.1-1.81s-.74-1.8-2.1-1.8H467v3.61Z"/><path class="cls-1" d="M477.27,776.06V761.17h9.42v3.13h-6.1v2.84h5.54v2.91h-5.54v2.86h6.13v3.15Z"/><path class="cls-1" d="M489.93,776.06V761.17h3.32v11.72h6.42v3.17Z"/><path class="cls-1" d="M502.24,776.06V761.17h9.42v3.13h-6.11v2.84h5.55v2.91h-5.55v2.86h6.13v3.15Z"/><path class="cls-1" d="M523.8,773h-5.75l-1.07,3h-3.49l5.61-14.89h3.84l5.54,14.89h-3.61Zm-4.66-3h3.61L521,764.87Z"/><path class="cls-1" d="M538,765.67a2.25,2.25,0,0,0-2.48-1.87,1.83,1.83,0,0,0-2,1.59c0,.72.44,1.24,1.47,1.43l2,.38c2.83.52,4.3,2.35,4.3,4.47,0,2.33-2,4.7-5.5,4.7-4.11,0-5.88-2.66-6.09-4.76l3.05-.74a2.76,2.76,0,0,0,3.08,2.56c1.3,0,2.1-.63,2.1-1.55,0-.76-.61-1.3-1.59-1.49l-2-.38c-2.52-.48-4-2.16-4-4.37,0-2.81,2.48-4.78,5.33-4.78,3.72,0,5.12,2.22,5.44,4Z"/><path class="cls-1" d="M543.92,776.06V761.17h9.43v3.13h-6.11v2.84h5.54v2.91h-5.54v2.86h6.13v3.15Z"/><circle class="cls-4" cx="508.3" cy="710.3" r="20.55" transform="translate(-10.7 7.78) rotate(-0.87)"/><path class="cls-1" d="M645.27,776.06V761.17h5.39c4.47,0,7.48,2.86,7.48,7.46s-3,7.43-7.5,7.43Zm5.25-3.13c2.28,0,4.15-1.32,4.15-4.3s-1.87-4.33-4.15-4.33h-1.94v8.63Z"/><path class="cls-1" d="M660.93,776.06V761.17h9.43v3.13h-6.11v2.84h5.54v2.91h-5.54v2.86h6.13v3.15Z"/><path class="cls-1" d="M683.09,761.17h3.52l-5.44,14.89h-3.42l-5.46-14.89H676l3.59,10.48Z"/><path class="cls-1" d="M688.86,776.06V761.17h9.43v3.13h-6.11v2.84h5.54v2.91h-5.54v2.86h6.13v3.15Z"/><path class="cls-1" d="M701.53,776.06V761.17h3.31v11.72h6.43v3.17Z"/><path class="cls-1" d="M720.36,760.86a7.76,7.76,0,1,1-7.75,7.77A7.53,7.53,0,0,1,720.36,760.86Zm0,12.24a4.51,4.51,0,1,0-4.3-4.49A4.19,4.19,0,0,0,720.36,773.1Z"/><path class="cls-1" d="M734.2,770.71v5.35h-3.32V761.17h5.61c3,0,5.1,2,5.1,4.77s-2.08,4.77-5.1,4.77Zm1.95-2.86a1.91,1.91,0,1,0,0-3.8h-1.93v3.8Z"/><circle class="cls-5" cx="692.89" cy="710.3" r="20.55" transform="translate(-10.68 10.58) rotate(-0.87)"/><path class="cls-1" d="M825.33,776.06V761.17h9.59v3.15h-6.28v3.15h5.53v3h-5.5v5.56Z"/><path class="cls-1" d="M837.68,776.06V761.17h9.42v3.13H841v2.84h5.55v2.91H841v2.86h6.13v3.15Z"/><path class="cls-1" d="M859.24,773h-5.75l-1.07,3h-3.49l5.61-14.89h3.84l5.54,14.89h-3.61Zm-4.66-3h3.61l-1.78-5.14Z"/><path class="cls-1" d="M871.48,764.34v11.72h-3.31V764.34h-4.58v-3.17h12.49v3.17Z"/><path class="cls-1" d="M878.5,770.68v-9.51h3.32v9.24a2.58,2.58,0,1,0,5.16,0v-9.24h3.32v9.51c0,3.74-2.63,5.71-5.9,5.71S878.5,774.42,878.5,770.68Z"/><path class="cls-1" d="M898.32,770.52h-1.17v5.54h-3.32V761.17h5.9a4.55,4.55,0,0,1,4.83,4.66,4.26,4.26,0,0,1-2.94,4.2l3,6H901Zm.78-2.86c1.37,0,2.1-.76,2.1-1.81s-.73-1.8-2.1-1.8h-2v3.61Z"/><path class="cls-1" d="M907.44,776.06V761.17h9.42v3.13h-6.11v2.84h5.55v2.91h-5.55v2.86h6.13v3.15Z"/><path class="cls-1" d="M927.37,765.67a2.26,2.26,0,0,0-2.48-1.87,1.83,1.83,0,0,0-2,1.59c0,.72.44,1.24,1.47,1.43l2,.38c2.83.52,4.3,2.35,4.3,4.47,0,2.33-2,4.7-5.5,4.7-4.12,0-5.88-2.66-6.09-4.76l3-.74a2.77,2.77,0,0,0,3.09,2.56c1.3,0,2.1-.63,2.1-1.55,0-.76-.61-1.3-1.59-1.49l-2-.38c-2.52-.48-4-2.16-4-4.37,0-2.81,2.47-4.78,5.33-4.78,3.72,0,5.12,2.22,5.44,4Z"/><circle class="cls-6" cx="877.49" cy="710.3" r="20.55" transform="translate(-10.66 13.37) rotate(-0.87)"/><path class="cls-1" d="M10.33,12H7.58L3.9,3h3L8.94,8.57,10.85,3h2.88Z"/><path class="cls-1" d="M16,2a4.51,4.51,0,0,1,4-2,4.51,4.51,0,0,1,4,2,7.32,7.32,0,0,1,1,4.12,7.37,7.37,0,0,1-1,4.13,4.55,4.55,0,0,1-4,2,4.55,4.55,0,0,1-4-2,7.37,7.37,0,0,1-1-4.13A7.31,7.31,0,0,1,16,2Zm2.25,6.66a1.79,1.79,0,0,0,1.71,1.08,1.75,1.75,0,0,0,1.71-1.08,5.74,5.74,0,0,0,.46-2.54,5.8,5.8,0,0,0-.46-2.54A1.77,1.77,0,0,0,19.92,2.5a1.81,1.81,0,0,0-1.71,1.08,6.27,6.27,0,0,0-.43,2.54A6.21,6.21,0,0,0,18.21,8.66Z"/><path class="cls-1" d="M28.15,8.43A1.85,1.85,0,0,1,30,10.26a1.85,1.85,0,1,1-3.69,0A1.84,1.84,0,0,1,28.15,8.43Z"/><path class="cls-1" d="M33.28,12V4.36H30.49V2.47A3,3,0,0,0,33.67.27h2.44V12Z"/><path class="cls-1" d="M388.56,12h-2.75l-3.68-9h3l2.07,5.56L389.08,3H392Z"/><path class="cls-1" d="M394.19,2a4.94,4.94,0,0,1,7.94,0,7.32,7.32,0,0,1,1,4.12,7.37,7.37,0,0,1-1,4.13,5,5,0,0,1-7.94,0,7.37,7.37,0,0,1-1-4.13A7.31,7.31,0,0,1,394.19,2Zm2.25,6.66a1.79,1.79,0,0,0,1.71,1.08,1.75,1.75,0,0,0,1.71-1.08,5.74,5.74,0,0,0,.45-2.54,5.8,5.8,0,0,0-.45-2.54,1.77,1.77,0,0,0-1.71-1.08,1.81,1.81,0,0,0-1.71,1.08A6.27,6.27,0,0,0,396,6.12,6.21,6.21,0,0,0,396.44,8.66Z"/><path class="cls-1" d="M406.38,8.43a1.85,1.85,0,0,1,1.85,1.83,1.85,1.85,0,1,1-3.69,0A1.84,1.84,0,0,1,406.38,8.43Z"/><path class="cls-1" d="M410.43,4.93a3.68,3.68,0,0,1-.11-1c0-2.09,1.57-4,4.38-4S419,1.75,419,3.83a4.15,4.15,0,0,1-2.3,3.64l-2.22,1.32a1.94,1.94,0,0,0-.79.79h5.4V12h-8.87A5.34,5.34,0,0,1,413,6.81l1.91-1.12c.92-.54,1.28-1,1.28-1.8a1.4,1.4,0,0,0-1.57-1.39A1.57,1.57,0,0,0,413,4.23a2.51,2.51,0,0,0,.11.72Z"/><path class="cls-1" d="M817.93,12h-2.75L811.5,3h3l2.07,5.56L818.46,3h2.88Z"/><path class="cls-1" d="M825.28,12V4.36h-2.8V2.47a3,3,0,0,0,3.19-2.2h2.43V12Z"/><path class="cls-1" d="M832.56,8.43a1.86,1.86,0,0,1,1.86,1.83,1.9,1.9,0,0,1-1.86,1.86,1.88,1.88,0,0,1-1.83-1.86A1.84,1.84,0,0,1,832.56,8.43Z"/><path class="cls-1" d="M837.21,2a4.94,4.94,0,0,1,7.94,0,7.32,7.32,0,0,1,1,4.12,7.37,7.37,0,0,1-1,4.13,5,5,0,0,1-7.94,0,7.37,7.37,0,0,1-1-4.13A7.32,7.32,0,0,1,837.21,2Zm2.25,6.66a1.89,1.89,0,0,0,3.42,0,5.89,5.89,0,0,0,.45-2.54,5.94,5.94,0,0,0-.45-2.54,1.89,1.89,0,0,0-3.42,0A6.11,6.11,0,0,0,839,6.12,6,6,0,0,0,839.46,8.66Z"/><path class="cls-7" d="M542.05,399.26a40.08,40.08,0,0,1,40.06-40.06"/><path class="cls-7" d="M320.52,399.26a40.08,40.08,0,0,0-40.06-40.06M204,519.2H482.21"/><circle class="cls-6" cx="400.78" cy="519.2" r="20.55"/><circle class="cls-6" cx="461.79" cy="519.2" r="20.55"/><circle class="cls-6" cx="305.43" cy="519.2" r="20.55"/><path class="cls-7" d="M999.67,359.2H224"/><circle class="cls-5" cx="621.14" cy="359.2" r="20.55"/><circle class="cls-5" cx="400.78" cy="359.2" r="20.55"/><circle class="cls-5" cx="999.67" cy="359.2" r="20.55"/><path class="cls-7" d="M320.52,399.26a40.08,40.08,0,0,0,40.07,40.07H500.94M100.42,158.74a40.08,40.08,0,0,0,40.07,40.07H163"/><circle class="cls-6" cx="400.78" cy="439.2" r="20.55"/><circle class="cls-6" cx="461.79" cy="439.2" r="20.55"/><path class="cls-7" d="M500.94,439.2h1.17a40.08,40.08,0,0,0,40.07-40.07"/><path class="cls-8" d="M64.39,199.2H18"/><path class="cls-9" d="M981.33,199.2H308.55"/><path class="cls-10" d="M681.37,279.2H17.69"/><path class="cls-11" d="M980.55,279.2H913.17"/><path class="cls-12" d="M980.29,119.2h-107"/><path class="cls-7" d="M100.42,159.26A40.08,40.08,0,0,0,60.36,119.2m205,39.54a40.09,40.09,0,0,1-40.07,40.07H162.86m102.51-39.55a40.08,40.08,0,0,1,40.06-40.06m39.94,240a40.08,40.08,0,0,1-40.07-40.07V238.74m0,0a40.08,40.08,0,0,0-40.06-40.06"/><circle class="cls-6" cx="183.41" cy="519.2" r="20.55"/><path class="cls-7" d="M829,119.2H41"/><circle class="cls-2" cx="20.55" cy="119.2" r="20.55" transform="translate(-1.8 0.32) rotate(-0.87)"/><circle class="cls-2" cx="400.78" cy="119.2" r="20.55"/><circle class="cls-2" cx="829.01" cy="119.2" r="20.55"/><path class="cls-13" d="M20.55,75.1V52.21M31.22,66.64,20.55,77.31,10,66.64"/><path class="cls-13" d="M400.78,75.1V52.21m10.67,14.43L400.78,77.31,390.24,66.64"/><path class="cls-13" d="M829,75.1V52.21m10.66,14.43L829,77.31,818.47,66.64"/><path class="cls-14" d="M73.89,359.2H16.78"/><path class="cls-15" d="M311.15,439.2H17.56"/><path class="cls-16" d="M981.85,439.2H543"/><path class="cls-17" d="M132.94,519.2H17.43"/><path class="cls-18" d="M981.59,519.2H502.24"/><path class="cls-7" d="M100.42,158.74V319.26a40.08,40.08,0,0,0,40.07,40.07H265"/><circle class="cls-5" cx="244.42" cy="359.2" r="20.42"/><circle class="cls-5" cx="183.41" cy="359.2" r="20.55"/><circle class="cls-3" cx="183.41" cy="199.2" r="20.55"/><path class="cls-7" d="M687.87,319.26a40.08,40.08,0,0,1-40.07,40.07m261.47-40.07a40.08,40.08,0,0,0,40.06,40.07h29.92M729,279.2H727.8a40.08,40.08,0,0,0-40.06,40.06m221.53,0A40.08,40.08,0,0,0,869.2,279.2H729"/><circle class="cls-4" cx="829.01" cy="279.2" r="20.55"/><circle class="cls-4" cx="768.13" cy="279.2" r="20.55"/><path class="cls-7" d="M183.41,379.75v119M204,198.68h61.4M829,258.77v-119"/></g></g></svg>